<?xml version="1.0" encoding="UTF-8"?>
<svg width="16px" height="16px" viewBox="0 0 16 16" version="1.1" xmlns="http://www.w3.org/2000/svg" xmlns:xlink="http://www.w3.org/1999/xlink" xml:space="preserve" xmlns:serif="http://www.serif.com/">
    <title>Christian Fredegaard</title>
    <style>
        #Dark {
            display: none;
        }
        @media (prefers-color-scheme: dark) {
            #Dark {
                display: inline;
            }
            #Light {
                display: none;
            }
        }
    </style>
    <g id="Logo-Light-Background-Favicon-Combined">
        <g id="Light">
            <path d="M3.125,0L12.875,0C14.601,0 16,1.399 16,3.125L16,12.875C16,14.601 14.601,16 12.875,16L3.125,16C1.399,16 0,14.601 0,12.875L0,3.125C0,1.399 1.399,0 3.125,0" style="fill:#f5f5f5;fill-rule:nonzero;"/>
            <path d="M3.845,7.741C3.845,6.234 4.963,5.011 6.583,5.011C7.437,5.011 8.03,5.274 8.502,5.836L7.76,6.481C7.445,6.151 7.055,5.986 6.583,5.986C5.57,5.986 4.933,6.781 4.933,7.741C4.933,8.701 5.57,9.481 6.605,9.481C7.115,9.481 7.497,9.309 7.805,8.971L8.57,9.624C8.172,10.104 7.497,10.456 6.583,10.456C5.023,10.456 3.845,9.241 3.845,7.741" style="fill:#262626;fill-rule:nonzero;"/>
            <path d="M8.997,5.109L12.08,5.109L12.08,6.054L10.047,6.054L10.047,7.284L12.042,7.284L12.042,8.214L10.047,8.214L10.047,10.359L8.997,10.359L8.997,5.109Z" style="fill:#262626;"/>
        </g>
        <g id="Dark">
            <path d="M3.125,0L12.875,0C14.601,0 16,1.399 16,3.125L16,12.875C16,14.601 14.601,16 12.875,16L3.125,16C1.399,16 0,14.601 0,12.875L0,3.125C0,1.399 1.399,0 3.125,0" style="fill:#171717;"/>
            <path d="M3.845,7.741C3.845,6.234 4.963,5.011 6.583,5.011C7.437,5.011 8.03,5.274 8.502,5.836L7.76,6.481C7.445,6.151 7.055,5.986 6.583,5.986C5.57,5.986 4.933,6.781 4.933,7.741C4.933,8.701 5.57,9.481 6.605,9.481C7.115,9.481 7.497,9.309 7.805,8.971L8.57,9.624C8.172,10.104 7.497,10.456 6.583,10.456C5.023,10.456 3.845,9.241 3.845,7.741" style="fill:#f5f5f5;"/>
            <path d="M8.997,5.109L12.08,5.109L12.08,6.054L10.047,6.054L10.047,7.284L12.042,7.284L12.042,8.214L10.047,8.214L10.047,10.359L8.997,10.359L8.997,5.109Z" style="fill:#f5f5f5;"/>
        </g>
    </g>
</svg>
