<svg id="Layer_1" data-name="Layer 1" xmlns="http://www.w3.org/2000/svg" viewBox="0 0 256 256"><defs><style>.cls-1{fill:#171717;}.cls-2{fill:#f4f4f4;}</style></defs><title>Artboard 1safari-pinned-tab</title><rect class="cls-1" width="256" height="256" rx="50"/><path class="cls-2" d="M61.52,123.86c0-24.12,17.88-43.68,43.8-43.68,13.68,0,23.16,4.2,30.72,13.2L124.16,103.7a24.92,24.92,0,0,0-18.84-7.92c-16.2,0-26.4,12.72-26.4,28.08s10.2,27.84,26.76,27.84c8.16,0,14.28-2.76,19.2-8.16L137.12,154c-6.36,7.68-17.16,13.32-31.8,13.32C80.36,167.3,61.52,147.86,61.52,123.86Z"/><path class="cls-2" d="M144,81.74h49.32V96.86H160.76v19.68h31.92v14.88H160.76v34.32H144Z"/></svg>